<?xml version="1.0" encoding="UTF-8"?>
<svg viewBox="0 0 88 89" xmlns="http://www.w3.org/2000/svg">
<path d="m53.2 33.1l-3.2-0.5c-0.1 0-0.2 0-0.2 0.1l-1.3 1.7a0.6 0.6 0 0 0 -0.1 0.4c0 0.1-0.1 0.3-0.2 0.2l-1.1-0.3c-0.2 0-0.4 0-0.5 0.2l-4.3 5.5c-0.1 0.1-0.2 0.1-0.4 0.1l-1.6-0.8a0.4 0.4 0 0 0 -0.2 -0.1c-0.1 0-0.2 0-0.2 0.1l-0.9 0.6a0.4 0.4 0 0 1 -0.2 0.1c-0.1 0-0.2 0-0.2-0.1l-0.4-0.2h-0.2a0.5 0.5 0 0 0 -0.2 0 0.5 0.5 0 0 0 -0.2 0.1c0 0.1-0.1 0.1-0.1 0.2l-0.3 1.3a0.7 0.7 0 0 0 0.3 0.8l0.8 0.5 2 1.2 1 0.6a0.7 0.7 0 0 0 0.4 0.1c0.2 0 0.3-0.1 0.4-0.2l1.6-1.4a0.8 0.8 0 0 1 0.5 -0.1l0.5 0.3c0.2 0.1 0.4 0.1 0.5-0.1l0.9-0.8a0.4 0.4 0 0 1 0.5 -0.1l1.3 0.6a0.6 0.6 0 0 0 0.3 0c0.1 0 0.2-0.1 0.3-0.1l0.6-0.8 4.3-5.5c0.2-0.3 0.1-0.7-0.3-0.7l-0.9-0.2c-0.2 0-0.3-0.3-0.2-0.5l1.5-1.8c0.2-0.2 0.1-0.5-0.1-0.5zm-14.4 11.2c-0.1-0.1-0.2 0-0.2 0.1l0.5 1.2v0.3l-0.4 1.6v0.2a0.4 0.4 0 0 0 0.1 0.1l1.2 0.9c0.1 0 0.1 0.1 0.2 0.1s0.1 0 0.2-0.1l1.3-1.1 0.1-0.1a0.3 0.3 0 0 1 0.2 0l1.3-0.2c0.1 0 0.1-0.1 0-0.2l-4.4-2.9zm-0.4 4.1l-0.1-0.1s-0.1 0-0.1 0-0.1 0-0.1 0 0 0-0.1 0.1l-1 0.5s0 0 0 0 0 0 0 0 0 0 0 0l-2.1 5.2h0.1l0.5-0.2v0.1l-1.5 2.5c0 0.1 0 0.1 0.1 0.1l5.4-5.5c0.1 0 0.1-0.1 0.1-0.2l0.1-1.4c0-0.1 0-0.2-0.1-0.2l-1.1-0.9z" fill="#fff"/>
<path d="m33 88.6l-2.1-4 3.7-2.6 0.7 1-1.2 0.8c-0.2 0.1-0.4 0.3-0.6 0.4a4 4 0 0 1 -0.6 0.3l4 1-0.3 1.1-4-1 0.3 0.3s0.2 0.2 0.3 0.4l0.3 0.5 0.7 1.2-1.1 0.5z" fill="#ffcd1e"/>
<path d="m15.6 73.4c0.6-0.7 1.6-0.8 2.5 0l1.9 1.6-3.7 4.2-1.5-1.3c-1-0.8-1.3-1.7-0.6-2.5 0.1-0.2 0.3-0.3 0.6-0.4s0.5-0.1 0.7 0c-0.2-0.2-0.2-0.5-0.2-0.8s0.2-0.6 0.4-0.8zm1.3 3.5l-0.8-0.7c-0.5-0.4-0.9-0.5-1.1-0.2s-0.1 0.6 0.4 1.1l0.7 0.7 0.7-0.8zm-0.6-2.7c-0.3 0.4-0.2 0.8 0.4 1.3l0.9 0.7 1-1.1-0.9-0.7c-0.5-0.5-1-0.6-1.3-0.2zm-9.1-4.6l2.6-1.9c1.2-0.9 2.5-0.9 3.4 0.3s0.5 2.4-0.7 3.3l-2.6 1.9-0.6-0.8 2.7-2a1.2 1.2 0 0 0 0.4 -0.3c0.1-0.1 0.2-0.3 0.2-0.5s0-0.3 0-0.5a1.2 1.2 0 0 0 -0.2 -0.5 1.2 1.2 0 0 0 -0.9 -0.5c-0.2 0-0.3 0-0.5 0.1a1.2 1.2 0 0 0 -0.4 0.3l-2.7 2-0.6-0.8zm2.6-6.5l-5 2.6-0.5-0.9 5-2.6 0.5 0.9zm-4.2-7.1l1.1-0.5 1.1 3.1-5.3 1.8-0.3-1 4.3-1.5-0.7-2.1zm-3.2-8.2c1.5-0.2 2.9 0.7 3.2 2.5l0.3 1.8-5.6 0.8-0.3-1.8c-0.3-1.9 0.8-3.1 2.4-3.3zm0.1 1a1.7 1.7 0 0 0 -1.2 0.6l-0.3 0.6a1.6 1.6 0 0 0 0 0.7l0.1 1 3.4-0.5-0.1-1a1.7 1.7 0 0 0 -0.2 -0.6 1.7 1.7 0 0 0 -1.7 -0.8zm-1.7-14.8l1.1 0.2-0.3 1.4 4.5 0.9-0.2 1-4.5-0.9-0.3 1.4-1-0.2 0.8-3.9zm3.1-8.5l5.2 2.2-0.4 1-2.1-0.9-1 2.2 2.1 0.9-0.4 1-5.2-2.2 0.4-1 2.1 0.9 0.9-2.2-2.1-0.9 0.4-1zm3.8-4.4l1 0.7 1.1-1.6 0.9 0.6-1.1 1.6 1 0.7 1.3-2 0.9 0.6-1.9 2.8-4.6-3.1 1.9-2.8 0.9 0.6-1.4 2zm11.2-5.9l-3.4-4.4 2.7-2.1 0.7 0.8-1.9 1.5 0.7 1 1.6-1.2 0.7 0.8-1.6 1.2 1.4 1.8-0.8 0.6zm7-10.9l1.4 2.9c0.7 1.3 0.4 2.6-0.9 3.3s-2.5 0.1-3.2-1.3l-1.4-2.8 0.9-0.5 1.5 3a1.2 1.2 0 0 0 0.3 0.4 1.2 1.2 0 0 0 0.9 0.3c0.2 0 0.3-0.1 0.5-0.1s0.3-0.2 0.4-0.3a1.2 1.2 0 0 0 0.3 -0.9 1.2 1.2 0 0 0 -0.1 -0.5l-1.5-3 0.9-0.5zm8-2.6l0.3 1-1.4 0.4 1.2 4.4-1 0.3-1.2-4.4-1.4 0.4-0.3-1 3.8-1.1zm8.9-1.1l0.2 3.2c0.1 1.5-0.6 2.6-2.1 2.7s-2.3-0.9-2.4-2.4l-0.3-3.2 1.1-0.1 0.2 3.3a1.2 1.2 0 0 0 0.4 0.9 1.2 1.2 0 0 0 0.4 0.3c0.2 0.1 0.3 0.1 0.5 0.1s0.3-0.1 0.5-0.1a1.2 1.2 0 0 0 0.6 -1.3l-0.2-3.3 1.1-0.1zm6.9 6.1l-1.1-2-0.6-0.1-0.2 1.8-1.1-0.1 0.7-5.5 2 0.3c1.4 0.2 2 1 1.9 2.1a1.9 1.9 0 0 1 -1.5 1.6l1.1 2.1-1.3-0.2zm-1.5-3.1l1.1 0.1a0.9 0.9 0 0 0 0.7 -0.1c0.1-0.1 0.2-0.1 0.2-0.2a0.9 0.9 0 0 0 0.1 -0.3 0.8 0.8 0 0 0 -0.2 -0.6 0.8 0.8 0 0 0 -0.3 -0.2 0.8 0.8 0 0 0 -0.3 -0.1l-1.1-0.1-0.2 1.6zm8.5 0.1l-0.4 1.1 1.9 0.6-0.3 1-1.9-0.6-0.4 1.1 2.3 0.7-0.3 1-3.3-1.1 1.8-5.3 3.3 1.1-0.3 1-2.3-0.7z" fill="#fff"/>
<path d="m71.5 9l0.3 4.5-4.4 0.8-0.2-1.2 1.4-0.2 0.7-0.1h0.7l-3.2-2.5 0.7-0.9 3.2 2.5a3 3 0 0 1 -0.1 -0.4 3.4 3.4 0 0 1 -0.1 -0.5c0-0.2 0-0.3-0.1-0.5l-0.1-1.5 1.2-0.1z" fill="#ffcd1e"/>
<path d="m79.1 29.4l1.2-1.9-0.3-0.6-1.7 0.8-0.5-1 5.1-2.4 0.8 1.8c0.6 1.3 0.2 2.2-0.8 2.7-0.4 0.2-0.8 0.2-1.1 0.2s-0.7-0.3-1-0.6l-1.2 2.1-0.5-1.2zm1.9-2.9l0.5 1a0.9 0.9 0 0 0 0.5 0.5 0.9 0.9 0 0 0 0.3 0.1c0.1 0 0.2 0 0.3-0.1a0.8 0.8 0 0 0 0.4 -0.5v-0.3a0.8 0.8 0 0 0 -0.1 -0.3l-0.5-1-1.5 0.7zm3.7 11.9a2.9 2.9 0 0 1 -1.7 -0.1 2.9 2.9 0 0 1 -1.3 -1 2.9 2.9 0 0 1 -0.1 -3.2 2.9 2.9 0 0 1 1.3 -1.1c0.5-0.2 1.1-0.3 1.7-0.2a2.9 2.9 0 0 1 1.5 0.8 2.9 2.9 0 0 1 0.8 1.5 2.9 2.9 0 0 1 -0.4 2.2c-0.4 0.7-1.1 1.1-1.8 1.3zm-0.2-1c0.4-0.1 0.7-0.3 0.9-0.5s0.4-0.6 0.5-1 0-0.7-0.1-1.1a1.9 1.9 0 0 0 -0.7 -0.8c-0.3-0.2-0.7-0.3-1-0.3s-0.7 0.1-1 0.3a1.9 1.9 0 0 0 -0.7 0.8c-0.1 0.3-0.2 0.7-0.1 1.1 0.1 0.2 0.2 0.5 0.3 0.7a1.9 1.9 0 0 0 0.5 0.5 1.9 1.9 0 0 0 0.7 0.3 1.8 1.8 0 0 0 0.7 0zm-0.6 9.1l-1 0.4a2.8 2.8 0 0 1 -0.7 -1.8 2.9 2.9 0 0 1 0.8 -2.1 2.9 2.9 0 0 1 2.1 -0.9c0.4 0 0.8 0.1 1.1 0.2a2.9 2.9 0 0 1 1 0.6c0.3 0.3 0.5 0.6 0.7 0.9a3 3 0 0 1 0.1 1.1 2.8 2.8 0 0 1 -0.6 1.8l-1-0.4a1.9 1.9 0 0 0 0.5 -1.4 1.8 1.8 0 0 0 -0.3 -0.8 1.9 1.9 0 0 0 -0.6 -0.6 1.9 1.9 0 0 0 -0.8 -0.3 1.9 1.9 0 0 0 -1.6 0.7c-0.2 0.2-0.3 0.5-0.4 0.8s0 0.6 0.1 0.9 0.3 0.5 0.5 0.8zm-2.8 8.2l0.3-1.3 2.8-1.6-2.4-0.5 0.2-1 5.5 1.1-0.2 1-2.3-0.5 1.9 2.4-0.3 1.3-2.2-2.9-3.4 1.9zm2.8 5.8l-1.1-0.5-0.8 1.8-1-0.4 0.8-1.8-1.1-0.5-0.9 2.2-1-0.4 1.3-3.2 5.2 2.1-1.3 3.2-1-0.4 0.9-2.2zm-4.1 9.8l-0.9-0.6 0.8-1.2-3.8-2.5 0.6-0.9 3.8 2.5 0.8-1.2 0.9 0.6-2.2 3.3zm-8.6 3.9c-0.7-0.7-0.8-1.8 0.3-2.9a3.1 3.1 0 0 1 1 -0.7c0.4-0.2 0.8-0.3 1.2-0.3l0.3 1a2.5 2.5 0 0 0 -1 0.2 2.4 2.4 0 0 0 -0.8 0.5c-0.5 0.5-0.6 1-0.3 1.3s0.7 0.1 1.3-0.3c1.3-1 2.1-1 2.7-0.4s0.7 1.8-0.2 2.8a3 3 0 0 1 -1.8 0.9l-0.4-1a2.3 2.3 0 0 0 1.4 -0.7c0.4-0.4 0.6-0.9 0.3-1.2s-0.6-0.1-1.3 0.4c-1 0.7-1.8 1.1-2.7 0.3zm-2.1 5.3l-0.7-1-1.6 1.1-0.6-0.9 1.6-1.1-0.7-1-2 1.4-0.6-0.9 2.8-2 3.2 4.6-2.8 2-0.6-0.9 1.9-1.4zm-10.4 1.9l2.2-1-0.1-1.1 1.1-0.5 0.2 6.1-0.9 0.4-4.4-4.2 1.1-0.5 0.8 0.8zm0.8 0.8l1.5 1.5-0.1-2.1-1.4 0.6zm-7.5 5.9l-0.3-1 1.4-0.3-1.1-4.4 1-0.2 1.1 4.4 1.6-0.6 0.3 1-3.9 0.9z" fill="#fff"/>
</svg>
